<svg width="166" height="34" viewBox="0 0 166 34" fill="none" xmlns="http://www.w3.org/2000/svg">
<path d="M11.8029 15.2606L16.3489 26.0051C16.8197 27.1179 17.9107 27.8409 19.119 27.8409C21.3451 27.8409 22.7998 25.5068 21.8193 23.5083L11.6355 2.75128L1.91639 23.6994C1.02243 25.6262 2.4294 27.83 4.55349 27.83C5.72092 27.83 6.7751 27.1317 7.2304 26.0567L11.8029 15.2606Z" fill="white"/>
<path d="M41.556 27.8342L29.0383 3.29572L29.0384 1.23048C29.0385 0.550997 28.4877 0.000126989 27.8082 8.18087e-05C27.1287 3.66274e-05 26.5778 0.550851 26.5778 1.23035L26.5778 2.27289H14.1685L23.4648 20.3721C25.818 24.9536 30.5359 27.8342 35.6864 27.8342H41.556Z" fill="white"/>
<path d="M11.7075 2.27281L14.1681 2.27289V2.27141L14.1682 1.23046C14.1683 0.550957 13.6175 6.34926e-05 12.938 4.09008e-05C12.2585 1.83114e-05 11.7077 0.550763 11.7076 1.2302L11.7075 2.27281Z" fill="white"/>
<path d="M50.8652 8H64.1818V11.2283H54.5239V16.3666H63.6437V19.5948H54.5239V24.8138H64.1818V28.0421H50.8652V8Z" fill="white"/>
<path d="M69.9315 28.3649C68.9092 28.3649 68.0214 28.1945 67.2682 27.8538C66.5149 27.513 65.932 27.0288 65.5195 26.401C65.107 25.7554 64.9008 25.0111 64.9008 24.1682C64.9008 22.9307 65.3222 21.9174 66.1652 21.1282C67.0081 20.3212 68.2725 19.7742 69.9584 19.4872L74.7469 18.707V21.3973L70.6309 22.0967C69.9315 22.2222 69.4114 22.4464 69.0706 22.7693C68.7298 23.0921 68.5595 23.5135 68.5595 24.0337C68.5595 24.5358 68.7478 24.9394 69.1244 25.2442C69.501 25.5312 69.9853 25.6747 70.5771 25.6747C71.2945 25.6747 71.9402 25.5222 72.5141 25.2173C73.088 24.8945 73.5274 24.4551 73.8323 23.8991C74.1551 23.3432 74.3165 22.7334 74.3165 22.0698V18.3035C74.3165 17.6758 74.0654 17.1557 73.5633 16.7432C73.079 16.3128 72.4334 16.0975 71.6263 16.0975C70.873 16.0975 70.2095 16.2948 69.6355 16.6894C69.0616 17.0839 68.6312 17.622 68.3442 18.3035L65.4657 16.9046C65.8962 15.7568 66.6853 14.8331 67.8331 14.1337C68.9809 13.4342 70.2902 13.0845 71.7608 13.0845C72.9445 13.0845 73.9937 13.3087 74.9084 13.7571C75.841 14.1875 76.5584 14.7973 77.0605 15.5864C77.5806 16.3755 77.8407 17.2812 77.8407 18.3035V28.0421H74.5048V25.5402L75.2581 25.4864C74.6842 26.4369 73.9489 27.1543 73.0521 27.6385C72.1733 28.1228 71.1331 28.3649 69.9315 28.3649Z" fill="white"/>
<path d="M85.8058 28.338C84.2634 28.3918 82.9004 28.069 81.7167 27.3695C80.533 26.6521 79.708 25.6657 79.2417 24.4103L81.8512 23.0652C82.2637 23.8722 82.8107 24.5 83.4922 24.9483C84.1738 25.3788 84.918 25.585 85.7251 25.5671C86.3708 25.5491 86.8729 25.3967 87.2316 25.1097C87.6083 24.8228 87.7876 24.4372 87.7697 23.9529C87.7517 23.5404 87.5814 23.2087 87.2585 22.9576C86.9357 22.6886 86.5232 22.5092 86.021 22.4195L83.6267 22.016C82.4072 21.7111 81.4656 21.182 80.802 20.4288C80.1384 19.6576 79.7887 18.7608 79.7528 17.7386C79.7349 16.8598 79.9412 16.0796 80.3716 15.3981C80.802 14.6986 81.4208 14.1516 82.2278 13.7571C83.0349 13.3446 83.9585 13.1204 84.9988 13.0845C86.3797 13.0486 87.6083 13.3535 88.6843 13.9992C89.7604 14.6269 90.5406 15.5236 91.0248 16.6894L88.4153 18.0345C88.1284 17.3888 87.68 16.8777 87.0702 16.5011C86.4784 16.1244 85.8058 15.9451 85.0526 15.963C84.4786 15.981 84.0213 16.1334 83.6805 16.4204C83.3398 16.6894 83.1784 17.0391 83.1963 17.4695C83.2142 17.8641 83.3757 18.1869 83.6805 18.438C84.0034 18.6891 84.4338 18.8774 84.9719 19.003L87.3123 19.4334C88.5319 19.7562 89.4735 20.2943 90.1371 21.0475C90.8186 21.7828 91.1773 22.6706 91.2131 23.7108C91.2311 24.5896 91.0248 25.3788 90.5944 26.0782C90.164 26.7597 89.5273 27.2978 88.6843 27.6923C87.8593 28.0869 86.8998 28.3021 85.8058 28.338Z" fill="white"/>
<path d="M97.3712 26.5625L97.5326 29.5217L91.1568 13.4073H94.95L99.4158 25.2981H98.0707L102.51 13.4073H106.33L98.4204 33.4225H94.6272L97.3712 26.5625Z" fill="white"/>
<path d="M107.485 8H115.932C117.241 8 118.371 8.23315 119.322 8.69946C120.272 9.14782 120.999 9.79348 121.501 10.6364C122.021 11.4793 122.281 12.4837 122.281 13.6494C122.281 14.6179 122.021 15.4967 121.501 16.2858C120.999 17.057 120.227 17.6937 119.187 18.1959V16.5011C120.586 17.0391 121.581 17.7655 122.173 18.6801C122.783 19.5948 123.088 20.6709 123.088 21.9084C123.088 23.8274 122.451 25.3339 121.178 26.4279C119.922 27.504 118.174 28.0421 115.932 28.0421H107.485V8ZM116.309 24.8138C117.241 24.8138 117.994 24.5538 118.568 24.0337C119.142 23.4956 119.429 22.7872 119.429 21.9084C119.429 21.0296 119.142 20.3212 118.568 19.7831C118.012 19.2451 117.259 18.9761 116.309 18.9761H111.143V24.8138H116.309ZM116.12 15.7747C116.874 15.7747 117.474 15.5595 117.923 15.1291C118.371 14.6807 118.595 14.1068 118.595 13.4073C118.595 12.7079 118.371 12.1519 117.923 11.7394C117.474 11.3269 116.874 11.1206 116.12 11.1206H111.143V15.7747H116.12Z" fill="white"/>
<path d="M129.906 28.3649C128.776 28.3649 127.789 28.1228 126.947 27.6385C126.121 27.1364 125.485 26.4279 125.036 25.5133C124.606 24.5986 124.391 23.5494 124.391 22.3657V13.4073H127.915V22.0698C127.915 22.9845 128.184 23.7288 128.722 24.3027C129.26 24.8587 129.977 25.1366 130.874 25.1366C131.753 25.1366 132.461 24.8497 132.999 24.2758C133.555 23.7019 133.833 22.9396 133.833 21.9891V13.4073H137.358V28.0421H134.022V25.1635L134.318 25.6747C133.977 26.5535 133.421 27.226 132.65 27.6923C131.879 28.1407 130.964 28.3649 129.906 28.3649Z" fill="white"/>
<path d="M145.341 28.338C143.799 28.3918 142.436 28.069 141.252 27.3695C140.069 26.6521 139.244 25.6657 138.777 24.4103L141.387 23.0652C141.799 23.8722 142.346 24.5 143.028 24.9483C143.709 25.3788 144.454 25.585 145.261 25.5671C145.906 25.5491 146.409 25.3967 146.767 25.1097C147.144 24.8228 147.323 24.4372 147.305 23.9529C147.287 23.5404 147.117 23.2087 146.794 22.9576C146.471 22.6886 146.059 22.5092 145.557 22.4195L143.162 22.016C141.943 21.7111 141.001 21.182 140.338 20.4288C139.674 19.6576 139.324 18.7608 139.288 17.7386C139.271 16.8598 139.477 16.0796 139.907 15.3981C140.338 14.6986 140.956 14.1516 141.763 13.7571C142.571 13.3446 143.494 13.1204 144.534 13.0845C145.915 13.0486 147.144 13.3535 148.22 13.9992C149.296 14.6269 150.076 15.5236 150.56 16.6894L147.951 18.0345C147.664 17.3888 147.216 16.8777 146.606 16.5011C146.014 16.1244 145.341 15.9451 144.588 15.963C144.014 15.981 143.557 16.1334 143.216 16.4204C142.875 16.6894 142.714 17.0391 142.732 17.4695C142.75 17.8641 142.911 18.1869 143.216 18.438C143.539 18.6891 143.969 18.8774 144.507 19.003L146.848 19.4334C148.068 19.7562 149.009 20.2943 149.673 21.0475C150.354 21.7828 150.713 22.6706 150.749 23.7108C150.767 24.5896 150.56 25.3788 150.13 26.0782C149.7 26.7597 149.063 27.2978 148.22 27.6923C147.395 28.0869 146.435 28.3021 145.341 28.338Z" fill="white"/>
<path d="M156.907 26.5625L157.068 29.5217L150.692 13.4073H154.486L158.951 25.2981H157.606L162.045 13.4073H165.865L157.956 33.4225H154.163L156.907 26.5625Z" fill="white"/>
</svg>
