<svg width="171" height="34" viewBox="0 0 171 34" fill="none" xmlns="http://www.w3.org/2000/svg">
<path d="M16.9377 15.2606L21.4837 26.0051C21.9545 27.1179 23.0455 27.8409 24.2538 27.8409C26.4798 27.8409 27.9346 25.5068 26.9541 23.5083L16.7703 2.75128L7.05116 23.6994C6.1572 25.6262 7.56417 27.83 9.68826 27.83C10.8557 27.83 11.9099 27.1317 12.3652 26.0567L16.9377 15.2606Z" fill="#0CCE6B"/>
<path d="M46.6908 27.8342L34.173 3.29572L34.1732 1.23048C34.1732 0.550997 33.6224 0.000126989 32.943 8.18087e-05C32.2635 3.66274e-05 31.7126 0.550851 31.7126 1.23035L31.7125 2.27289H19.3032L28.5996 20.3721C30.9528 24.9536 35.6707 27.8342 40.8212 27.8342H46.6908Z" fill="#0CCE6B"/>
<path d="M16.842 2.27281L19.3026 2.27289V2.27141L19.3027 1.23046C19.3028 0.550957 18.752 6.34926e-05 18.0725 4.09008e-05C17.393 1.83114e-05 16.8422 0.550763 16.8422 1.2302L16.842 2.27281Z" fill="#0CCE6B"/>
<path d="M56 8H69.3165V11.2283H59.6587V16.3666H68.7785V19.5948H59.6587V24.8138H69.3165V28.0421H56V8Z" fill="#2C4251"/>
<path d="M75.0662 28.3649C74.044 28.3649 73.1562 28.1945 72.4029 27.8538C71.6497 27.513 71.0668 27.0288 70.6543 26.401C70.2418 25.7554 70.0355 25.0111 70.0355 24.1682C70.0355 22.9307 70.457 21.9174 71.2999 21.1282C72.1429 20.3212 73.4073 19.7742 75.0931 19.4872L79.8817 18.707V21.3973L75.7657 22.0967C75.0662 22.2222 74.5461 22.4464 74.2054 22.7693C73.8646 23.0921 73.6942 23.5135 73.6942 24.0337C73.6942 24.5358 73.8825 24.9394 74.2592 25.2442C74.6358 25.5312 75.12 25.6747 75.7119 25.6747C76.4293 25.6747 77.0749 25.5222 77.6488 25.2173C78.2228 24.8945 78.6622 24.4551 78.967 23.8991C79.2899 23.3432 79.4513 22.7334 79.4513 22.0698V18.3035C79.4513 17.6758 79.2002 17.1557 78.698 16.7432C78.2138 16.3128 77.5681 16.0975 76.7611 16.0975C76.0078 16.0975 75.3442 16.2948 74.7703 16.6894C74.1964 17.0839 73.766 17.622 73.479 18.3035L70.6005 16.9046C71.0309 15.7568 71.82 14.8331 72.9679 14.1337C74.1157 13.4342 75.4249 13.0845 76.8956 13.0845C78.0793 13.0845 79.1285 13.3087 80.0431 13.7571C80.9757 14.1875 81.6931 14.7973 82.1953 15.5864C82.7154 16.3755 82.9755 17.2812 82.9755 18.3035V28.0421H79.6396V25.5402L80.3929 25.4864C79.8189 26.4369 79.0836 27.1543 78.1869 27.6385C77.3081 28.1228 76.2679 28.3649 75.0662 28.3649Z" fill="#2C4251"/>
<path d="M90.9406 28.338C89.3982 28.3918 88.0352 28.069 86.8515 27.3695C85.6678 26.6521 84.8428 25.6657 84.3765 24.4103L86.986 23.0652C87.3985 23.8722 87.9455 24.5 88.627 24.9483C89.3085 25.3788 90.0528 25.585 90.8599 25.5671C91.5055 25.5491 92.0077 25.3967 92.3664 25.1097C92.743 24.8228 92.9224 24.4372 92.9044 23.9529C92.8865 23.5404 92.7161 23.2087 92.3933 22.9576C92.0705 22.6886 91.658 22.5092 91.1558 22.4195L88.7615 22.016C87.542 21.7111 86.6004 21.182 85.9368 20.4288C85.2732 19.6576 84.9235 18.7608 84.8876 17.7386C84.8697 16.8598 85.0759 16.0796 85.5064 15.3981C85.9368 14.6986 86.5555 14.1516 87.3626 13.7571C88.1697 13.3446 89.0933 13.1204 90.1335 13.0845C91.5145 13.0486 92.743 13.3535 93.8191 13.9992C94.8952 14.6269 95.6754 15.5236 96.1596 16.6894L93.5501 18.0345C93.2631 17.3888 92.8148 16.8777 92.205 16.5011C91.6131 16.1244 90.9406 15.9451 90.1873 15.963C89.6134 15.981 89.1561 16.1334 88.8153 16.4204C88.4746 16.6894 88.3131 17.0391 88.3311 17.4695C88.349 17.8641 88.5104 18.1869 88.8153 18.438C89.1381 18.6891 89.5686 18.8774 90.1066 19.003L92.4471 19.4334C93.6667 19.7562 94.6082 20.2943 95.2718 21.0475C95.9533 21.7828 96.312 22.6706 96.3479 23.7108C96.3658 24.5896 96.1596 25.3788 95.7292 26.0782C95.2987 26.7597 94.662 27.2978 93.8191 27.6923C92.9941 28.0869 92.0346 28.3021 90.9406 28.338Z" fill="#2C4251"/>
<path d="M102.506 26.5625L102.667 29.5217L96.2916 13.4073H100.085L104.551 25.2981H103.205L107.644 13.4073H111.464L103.555 33.4225H99.762L102.506 26.5625Z" fill="#2C4251"/>
<path d="M112.619 8H121.067C122.376 8 123.506 8.23315 124.456 8.69946C125.407 9.14782 126.133 9.79348 126.635 10.6364C127.156 11.4793 127.416 12.4837 127.416 13.6494C127.416 14.6179 127.156 15.4967 126.635 16.2858C126.133 17.057 125.362 17.6937 124.322 18.1959V16.5011C125.721 17.0391 126.716 17.7655 127.308 18.6801C127.918 19.5948 128.223 20.6709 128.223 21.9084C128.223 23.8274 127.586 25.3339 126.313 26.4279C125.057 27.504 123.309 28.0421 121.067 28.0421H112.619V8ZM121.443 24.8138C122.376 24.8138 123.129 24.5538 123.703 24.0337C124.277 23.4956 124.564 22.7872 124.564 21.9084C124.564 21.0296 124.277 20.3212 123.703 19.7831C123.147 19.2451 122.394 18.9761 121.443 18.9761H116.278V24.8138H121.443ZM121.255 15.7747C122.008 15.7747 122.609 15.5595 123.057 15.1291C123.506 14.6807 123.73 14.1068 123.73 13.4073C123.73 12.7079 123.506 12.1519 123.057 11.7394C122.609 11.3269 122.008 11.1206 121.255 11.1206H116.278V15.7747H121.255Z" fill="#2C4251"/>
<path d="M135.04 28.3649C133.911 28.3649 132.924 28.1228 132.081 27.6385C131.256 27.1364 130.62 26.4279 130.171 25.5133C129.741 24.5986 129.526 23.5494 129.526 22.3657V13.4073H133.05V22.0698C133.05 22.9845 133.319 23.7288 133.857 24.3027C134.395 24.8587 135.112 25.1366 136.009 25.1366C136.888 25.1366 137.596 24.8497 138.134 24.2758C138.69 23.7019 138.968 22.9396 138.968 21.9891V13.4073H142.492V28.0421H139.157V25.1635L139.452 25.6747C139.112 26.5535 138.556 27.226 137.785 27.6923C137.013 28.1407 136.099 28.3649 135.04 28.3649Z" fill="#2C4251"/>
<path d="M150.476 28.338C148.934 28.3918 147.571 28.069 146.387 27.3695C145.203 26.6521 144.378 25.6657 143.912 24.4103L146.522 23.0652C146.934 23.8722 147.481 24.5 148.163 24.9483C148.844 25.3788 149.588 25.585 150.396 25.5671C151.041 25.5491 151.543 25.3967 151.902 25.1097C152.279 24.8228 152.458 24.4372 152.44 23.9529C152.422 23.5404 152.252 23.2087 151.929 22.9576C151.606 22.6886 151.194 22.5092 150.691 22.4195L148.297 22.016C147.078 21.7111 146.136 21.182 145.472 20.4288C144.809 19.6576 144.459 18.7608 144.423 17.7386C144.405 16.8598 144.612 16.0796 145.042 15.3981C145.472 14.6986 146.091 14.1516 146.898 13.7571C147.705 13.3446 148.629 13.1204 149.669 13.0845C151.05 13.0486 152.279 13.3535 153.355 13.9992C154.431 14.6269 155.211 15.5236 155.695 16.6894L153.086 18.0345C152.799 17.3888 152.35 16.8777 151.741 16.5011C151.149 16.1244 150.476 15.9451 149.723 15.963C149.149 15.981 148.692 16.1334 148.351 16.4204C148.01 16.6894 147.849 17.0391 147.867 17.4695C147.885 17.8641 148.046 18.1869 148.351 18.438C148.674 18.6891 149.104 18.8774 149.642 19.003L151.983 19.4334C153.202 19.7562 154.144 20.2943 154.807 21.0475C155.489 21.7828 155.848 22.6706 155.884 23.7108C155.901 24.5896 155.695 25.3788 155.265 26.0782C154.834 26.7597 154.198 27.2978 153.355 27.6923C152.53 28.0869 151.57 28.3021 150.476 28.338Z" fill="#2C4251"/>
<path d="M162.042 26.5625L162.203 29.5217L155.827 13.4073H159.62L164.086 25.2981H162.741L167.18 13.4073H171L163.091 33.4225H159.298L162.042 26.5625Z" fill="#2C4251"/>
</svg>
