<svg width="24" height="24" viewBox="0 0 24 24" fill="none" xmlns="http://www.w3.org/2000/svg">
<path fill-rule="evenodd" clip-rule="evenodd" d="M12.7498 3.00012C12.7498 2.58591 12.414 2.25012 11.9998 2.25012C11.5855 2.25012 11.2498 2.58591 11.2498 3.00012V4.25012H9.90545C7.8524 4.25012 6.24976 5.98678 6.24976 8.0511C6.24976 9.66384 7.23376 11.1266 8.73883 11.6534L11.2498 12.5322V18.2501H10.3331C8.94042 18.2501 7.74976 17.0538 7.74976 15.5001C7.74976 15.0859 7.41397 14.7501 6.99976 14.7501C6.58554 14.7501 6.24976 15.0859 6.24976 15.5001C6.24976 17.8124 8.04386 19.7501 10.3331 19.7501H11.2498V21.0001C11.2498 21.4143 11.5855 21.7501 11.9998 21.7501C12.414 21.7501 12.7498 21.4143 12.7498 21.0001V19.7501H14.0941C16.1471 19.7501 17.7498 18.0135 17.7498 15.9491C17.7498 14.3364 16.7658 12.8736 15.2607 12.3468L12.7498 11.468V5.75012H13.6664C15.0591 5.75012 16.2498 6.94644 16.2498 8.50012C16.2498 8.91434 16.5855 9.25012 16.9998 9.25012C17.414 9.25012 17.7498 8.91434 17.7498 8.50012C17.7498 6.18782 15.9556 4.25012 13.6664 4.25012H12.7498V3.00012ZM11.2498 5.75012H9.90545C8.74896 5.75012 7.74976 6.7454 7.74976 8.0511C7.74976 9.06483 8.36639 9.93383 9.23435 10.2376L11.2498 10.943V5.75012ZM12.7498 13.0572V18.2501H14.0941C15.2506 18.2501 16.2498 17.2548 16.2498 15.9491C16.2498 14.9354 15.6331 14.0664 14.7652 13.7626L12.7498 13.0572Z" fill="#0CCE6B"/>
</svg>
