<svg width="25" height="24" viewBox="0 0 25 24" fill="none" xmlns="http://www.w3.org/2000/svg">
<path fill-rule="evenodd" clip-rule="evenodd" d="M15 3.75C16.1902 3.75 17.0201 3.75112 17.6557 3.82277C18.2762 3.89272 18.6181 4.02187 18.8697 4.21496C19.0257 4.33466 19.1653 4.47429 19.285 4.63029C19.4781 4.88193 19.6073 5.22376 19.6772 5.84426C19.7489 6.47987 19.75 7.30977 19.75 8.5V15.5C19.75 16.6902 19.7489 17.5201 19.6772 18.1557C19.6073 18.7762 19.4781 19.1181 19.285 19.3697C19.1653 19.5257 19.0257 19.6653 18.8697 19.785C18.6181 19.9781 18.2762 20.1073 17.6557 20.1772C17.0201 20.2489 16.1902 20.25 15 20.25H14.5C14.0858 20.25 13.75 20.5858 13.75 21C13.75 21.4142 14.0858 21.75 14.5 21.75H15H15.0452C16.1796 21.75 17.0943 21.75 17.8238 21.6678C18.5781 21.5828 19.2266 21.4019 19.7829 20.9751C20.0429 20.7756 20.2756 20.5429 20.4751 20.2829C20.9019 19.7266 21.0828 19.0781 21.1678 18.3238C21.25 17.5943 21.25 16.6796 21.25 15.5452V15.5V8.5V8.45482C21.25 7.3204 21.25 6.40571 21.1678 5.67622C21.0828 4.92195 20.9019 4.27343 20.4751 3.71714C20.2756 3.45715 20.0429 3.22443 19.7829 3.02493C19.2266 2.59807 18.5781 2.41725 17.8238 2.33221C17.0943 2.24997 16.1796 2.24999 15.0452 2.25H15H14.5C14.0858 2.25 13.75 2.58579 13.75 3C13.75 3.41421 14.0858 3.75 14.5 3.75H15ZM10.0303 7.46967C9.73744 7.17678 9.26256 7.17678 8.96967 7.46967C8.67678 7.76256 8.67678 8.23744 8.96967 8.53033L11.6893 11.25H4.5C4.08579 11.25 3.75 11.5858 3.75 12C3.75 12.4142 4.08579 12.75 4.5 12.75H11.6893L8.96967 15.4697C8.67678 15.7626 8.67678 16.2374 8.96967 16.5303C9.26256 16.8232 9.73744 16.8232 10.0303 16.5303L14.0303 12.5303C14.3232 12.2374 14.3232 11.7626 14.0303 11.4697L10.0303 7.46967Z" fill="#0CCE6B"/>
</svg>
