<svg width="24" height="24" viewBox="0 0 24 24" fill="none" xmlns="http://www.w3.org/2000/svg">
<path fill-rule="evenodd" clip-rule="evenodd" d="M4.75 10.1482C4.75 7.63084 5.66985 5.80029 7.00337 4.59299C8.34965 3.37413 10.1636 2.74996 12 2.74997C13.8364 2.74997 15.6504 3.37415 16.9966 4.59301C18.3301 5.80031 19.25 7.63086 19.25 10.1482C19.25 13.4221 17.2847 16.2839 15.2683 18.3449C14.5408 19.0884 14.0747 19.5589 13.5981 19.8644C13.1668 20.1408 12.7127 20.288 12.0002 20.288C11.2877 20.288 10.8336 20.1408 10.4023 19.8644C9.9257 19.559 9.45955 19.0885 8.73207 18.345C6.71544 16.2839 4.75 13.4221 4.75 10.1482ZM20.75 10.1482C20.75 7.23334 19.6699 4.9898 18.0034 3.48104C16.3496 1.98384 14.1636 1.24997 12 1.24997C9.83643 1.24996 7.65035 1.98381 5.99663 3.48101C4.33015 4.98977 3.25 7.23332 3.25 10.1482C3.25 14.0136 5.5502 17.2379 7.65992 19.394L7.70691 19.4421L7.70693 19.4421C8.37418 20.1242 8.95657 20.7195 9.59294 21.1273C10.2895 21.5737 11.0303 21.788 12.0002 21.788C12.9702 21.7879 13.711 21.5737 14.4075 21.1272C15.0439 20.7194 15.6262 20.124 16.2935 19.4419L16.2935 19.4419L16.3405 19.3939C18.45 17.2377 20.75 14.0135 20.75 10.1482ZM9.75 10C9.75 8.75736 10.7574 7.75 12 7.75C13.2426 7.75 14.25 8.75736 14.25 10C14.25 11.2426 13.2426 12.25 12 12.25C10.7574 12.25 9.75 11.2426 9.75 10ZM12 6.25C9.92893 6.25 8.25 7.92893 8.25 10C8.25 12.0711 9.92893 13.75 12 13.75C14.0711 13.75 15.75 12.0711 15.75 10C15.75 7.92893 14.0711 6.25 12 6.25Z" fill="#0CCE6B"/>
</svg>
