<svg width="175" height="124" viewBox="0 0 175 124" fill="none" xmlns="http://www.w3.org/2000/svg">
<path d="M33.1561 80.8324C29.3406 90.481 23.3282 100.014 15.2922 109.197C12.7485 112.104 12.4016 116.289 14.4828 119.544C16.1017 122.101 18.7609 123.496 21.6515 123.496C22.4609 123.496 23.2704 123.438 24.0799 123.147C41.0764 118.149 80.7939 100.421 81.8924 43.5741C82.2968 21.6612 66.3408 2.82879 45.5859 0.678163C34.0813 -0.484395 22.6345 3.2935 14.1359 10.9661C5.63767 18.6968 0.78125 29.7407 0.78125 41.2493C0.78125 60.4305 14.3095 77.2287 33.1561 80.8324Z" fill="white"/>
<path d="M137.855 0.678163C126.407 -0.484395 114.961 3.2935 106.462 10.9661C97.9638 18.6968 93.1074 29.7407 93.1074 41.2493C93.1074 60.4305 106.636 77.2287 125.483 80.8324C121.667 90.481 115.654 100.014 107.618 109.197C105.075 112.104 104.728 116.289 106.809 119.544C108.428 122.101 111.087 123.496 113.978 123.496C114.787 123.496 115.597 123.438 116.406 123.147C133.403 118.149 173.12 100.421 174.219 43.5741V42.7606C174.219 21.1961 158.436 2.82879 137.855 0.678163Z" fill="white"/>
</svg>
