<svg width="122" height="116" viewBox="0 0 122 116" fill="none" xmlns="http://www.w3.org/2000/svg">
<path d="M77.2598 40.5824C72.014 36.0009 65.6765 34.2569 59.2939 35.2827C59.059 35.2215 58.8052 35.182 58.5131 35.198C42.5372 36.0435 30.9775 52.7688 36.1487 68.0862C40.3261 80.4581 54.0984 85.4826 65.8143 81.1675C76.177 77.3519 85.7341 67.5333 85.4624 55.8981C85.3161 49.6352 81.8265 44.5724 77.2598 40.5824Z" fill="#FFFC52"/>
<path d="M23.2527 27.0509C20.5893 25.0693 17.731 29.342 20.3829 31.3144C23.794 33.8517 26.8958 36.7266 29.9793 39.6446C32.365 41.9013 36.2515 38.5306 33.8376 36.2476C30.438 33.0336 27.0122 29.8473 23.2527 27.0509Z" fill="#FFFC52"/>
<path d="M57.8718 24.7568C57.2088 20.1602 56.0112 15.7343 54.3805 11.3887C53.2185 8.29066 48.6243 10.6025 49.7779 13.6799C51.2448 17.5907 52.2297 21.6094 52.8262 25.7415C53.3003 29.0267 58.3426 28.0255 57.8718 24.7568Z" fill="#FFFC52"/>
<path d="M83.6238 19.9692C81.0213 23.1835 78.5417 26.4933 75.82 29.6101C74.8965 30.6678 75.464 32.4688 76.5169 33.1771C77.7866 34.0321 79.164 33.5345 80.0836 32.4803C82.8037 29.3623 85.2846 26.0534 87.8873 22.839C89.9762 20.2599 85.6938 17.4115 83.6238 19.9692Z" fill="#FFFC52"/>
<path d="M25.6031 61.9575C20.6997 62.3714 15.7851 62.5875 10.8816 63.0009C7.58137 63.2796 8.60127 68.3204 11.867 68.0448C16.7704 67.6304 21.6853 67.4158 26.5885 67.0012C29.8878 66.7233 28.8689 61.6819 25.6031 61.9575Z" fill="#FFFC52"/>
<path d="M38.5457 88.0646C34.4237 92.5399 30.205 96.9242 25.9386 101.263C23.631 103.609 27.0051 107.491 29.3354 105.12C33.6015 100.781 37.8207 96.3981 41.9425 91.9218C44.163 89.5125 40.795 85.622 38.5457 88.0646Z" fill="#FFFC52"/>
<path d="M61.7682 88.9301C62.773 93.972 63.9726 98.971 64.9773 104.013C65.6245 107.263 70.669 106.278 70.0216 103.027C69.0171 97.9865 67.8162 92.9866 66.8125 87.9446C66.1654 84.6943 61.1209 85.6788 61.7682 88.9301Z" fill="#FFFC52"/>
<path d="M88.4155 72.4462C85.5718 70.7682 82.686 75.0216 85.5457 76.7097C90.5061 79.6387 95.2897 82.8385 99.9674 86.1982C102.664 88.1357 105.526 83.8658 102.837 81.9348C98.1597 78.5751 93.3757 75.3743 88.4155 72.4462Z" fill="#FFFC52"/>
<path d="M109.187 44.8415C103.385 45.9752 97.5877 47.1281 91.8346 48.4936C88.6184 49.2572 89.5921 54.3042 92.8201 53.5373C98.5732 52.1717 104.37 51.0205 110.172 49.8845C113.425 49.2491 112.44 44.206 109.187 44.8415Z" fill="#FFFC52"/>
</svg>
